<svg width="222" height="74" viewBox="0 0 222 74" fill="none" xmlns="http://www.w3.org/2000/svg">
<path d="M212.469 0H10.125C5.01637 0 0.875 4.14137 0.875 9.25V64.75C0.875 69.8586 5.01637 74 10.125 74H212.469C217.577 74 221.719 69.8586 221.719 64.75V9.25C221.719 4.14137 217.577 0 212.469 0Z" fill="white"/>
<path d="M16.4623 72.3812C15.9 72.3812 15.3513 72.374 14.7934 72.3614C13.6377 72.3462 12.4847 72.2454 11.3439 72.0596C10.2801 71.876 9.24957 71.5343 8.2863 71.046C7.33187 70.5617 6.46135 69.9267 5.70809 69.1653C4.94394 68.4129 4.30773 67.5402 3.82471 66.5818C3.33637 65.6172 2.9984 64.5832 2.82259 63.516C2.63273 62.3692 2.53 61.2096 2.5153 60.0472C2.5036 59.6571 2.48828 58.3579 2.48828 58.3579V15.6219C2.48828 15.6219 2.5046 14.3428 2.5154 13.9671C2.52947 12.8065 2.6316 11.6487 2.82089 10.5037C2.99702 9.43351 3.33525 8.39659 3.82387 7.42882C4.30511 6.4711 4.93777 5.59775 5.69734 4.84261C6.45603 4.08031 7.32934 3.44202 8.2854 2.95105C9.24645 2.46428 10.275 2.12506 11.3366 1.94475C12.4812 1.7571 13.6383 1.65565 14.798 1.64125L16.4632 1.61865H206.125L207.811 1.64215C208.96 1.65584 210.106 1.75638 211.24 1.94295C212.313 2.12551 213.352 2.4671 214.324 2.95647C216.24 3.94593 217.798 5.51135 218.782 7.43333C219.263 8.39443 219.596 9.42289 219.769 10.4838C219.961 11.6383 220.067 12.8051 220.089 13.9752C220.095 14.499 220.095 15.0619 220.095 15.6219C220.11 16.3156 220.11 16.976 220.11 17.6417V56.3598C220.11 57.0319 220.11 57.6878 220.095 58.3489C220.095 58.9505 220.095 59.5017 220.088 60.0688C220.066 61.218 219.961 62.3641 219.772 63.4978C219.6 64.5728 219.264 65.6148 218.776 66.5873C218.289 67.5353 217.657 68.4004 216.901 69.1508C216.148 69.9164 215.276 70.5551 214.32 71.0424C213.349 71.5345 212.312 71.8775 211.24 72.0596C210.1 72.2465 208.946 72.3473 207.791 72.3614C207.25 72.374 206.685 72.3812 206.134 72.3812L204.134 72.3849L16.4623 72.3812Z" fill="white"/>
<path d="M47.0039 36.7973C47.0245 35.1915 47.45 33.6172 48.2407 32.2205C49.0315 30.824 50.1619 29.6505 51.5265 28.8095C50.6595 27.5683 49.5159 26.5469 48.1862 25.8263C46.8565 25.1058 45.3776 24.7059 43.8669 24.6585C40.6441 24.3194 37.5198 26.5917 35.8775 26.5917C34.2035 26.5917 31.675 24.6922 28.9522 24.7484C27.1911 24.8054 25.4746 25.3187 23.9703 26.2384C22.4659 27.1582 21.2249 28.4528 20.368 29.9962C16.6564 36.4379 19.4249 45.9051 22.9804 51.1121C24.7593 53.6619 26.8382 56.51 29.5585 56.409C32.2206 56.2983 33.2147 54.7074 36.4279 54.7074C39.6114 54.7074 40.5442 56.409 43.3196 56.3448C46.1761 56.2983 47.9759 53.7838 49.6923 51.2098C50.9704 49.3931 51.9539 47.3852 52.6064 45.2605C50.9468 44.5569 49.5307 43.3791 48.5344 41.8742C47.5381 40.3692 47.0058 38.6035 47.0039 36.7973Z" fill="#333333"/>
<path d="M41.7657 21.2333C43.3232 19.3592 44.0906 16.9501 43.9048 14.5181C41.5254 14.7685 39.3274 15.9085 37.7489 17.7108C36.9771 18.5912 36.3861 19.6155 36.0094 20.7252C35.6328 21.8347 35.4781 23.0078 35.5539 24.1775C36.744 24.1897 37.9214 23.9311 38.9975 23.4212C40.0735 22.9112 41.02 22.1631 41.7657 21.2333Z" fill="#333333"/>
<path d="M78.9438 50.2082H70.2081L68.1103 56.4176H64.4102L72.6844 33.4443H76.5287L84.8029 56.4176H81.0398L78.9438 50.2082ZM71.1128 47.3429H78.0373L74.6238 37.2654H74.5282L71.1128 47.3429Z" fill="#333333"/>
<path d="M102.673 48.0437C102.673 53.2486 99.8938 56.5927 95.6999 56.5927C94.6376 56.6484 93.581 56.4031 92.6512 55.8849C91.7214 55.3665 90.9561 54.5964 90.4427 53.6623H90.3634V61.9584H86.9336V39.6681H90.2534V42.4539H90.3164C90.8534 41.5244 91.6318 40.7581 92.5686 40.2367C93.5055 39.7153 94.5658 39.4582 95.6368 39.4928C99.8776 39.4928 102.673 42.8531 102.673 48.0437ZM99.1476 48.0437C99.1476 44.6526 97.3995 42.4232 94.732 42.4232C92.1116 42.4232 90.3489 44.6996 90.3489 48.0437C90.3489 51.4185 92.1116 53.6786 94.732 53.6786C97.3995 53.6786 99.1476 51.4655 99.1476 48.0437Z" fill="#333333"/>
<path d="M121.065 48.0437C121.065 53.2486 118.284 56.5927 114.09 56.5927C113.028 56.6484 111.972 56.4031 111.042 55.8849C110.112 55.3665 109.347 54.5964 108.833 53.6623H108.754V61.9584H105.324V39.6681H108.644V42.4539H108.707C109.244 41.5244 110.022 40.7581 110.959 40.2367C111.896 39.7153 112.956 39.4582 114.027 39.4928C118.268 39.4928 121.065 42.8531 121.065 48.0437ZM117.538 48.0437C117.538 44.6526 115.79 42.4232 113.123 42.4232C110.502 42.4232 108.74 44.6996 108.74 48.0437C108.74 51.4185 110.502 53.6786 113.123 53.6786C115.79 53.6786 117.538 51.4655 117.538 48.0437Z" fill="#333333"/>
<path d="M133.219 50.0169C133.473 52.295 135.68 53.7909 138.697 53.7909C141.589 53.7909 143.668 52.295 143.668 50.2409C143.668 48.4577 142.413 47.39 139.444 46.6582L136.473 45.941C132.265 44.9221 130.312 42.9492 130.312 39.7479C130.312 35.784 133.757 33.0615 138.648 33.0615C143.493 33.0615 146.813 35.784 146.925 39.7479H143.463C143.255 37.4552 141.364 36.0714 138.602 36.0714C135.839 36.0714 133.948 37.4715 133.948 39.5094C133.948 41.1335 135.155 42.0893 138.11 42.8209L140.635 43.4423C145.337 44.5571 147.289 46.4504 147.289 49.8107C147.289 54.1087 143.876 56.8006 138.444 56.8006C133.361 56.8006 129.929 54.172 129.707 50.0167L133.219 50.0169Z" fill="#333333"/>
<path d="M154.692 35.7061V39.6698H157.87V42.3924H154.692V51.6261C154.692 53.0606 155.328 53.7291 156.725 53.7291C157.102 53.7225 157.479 53.6959 157.854 53.6496V56.3559C157.226 56.4735 156.586 56.5268 155.948 56.5149C152.565 56.5149 151.246 55.2411 151.246 51.9928V42.3924H148.816V39.6698H151.246V35.7061H154.692Z" fill="#333333"/>
<path d="M159.711 48.0453C159.711 42.7754 162.807 39.4639 167.635 39.4639C172.479 39.4639 175.562 42.7754 175.562 48.0453C175.562 53.3298 172.496 56.6269 167.635 56.6269C162.776 56.6269 159.711 53.3297 159.711 48.0453ZM172.067 48.0453C172.067 44.4303 170.414 42.2967 167.635 42.2967C164.856 42.2967 163.203 44.4465 163.203 48.0453C163.203 51.6749 164.856 53.7923 167.635 53.7923C170.414 53.7923 172.067 51.6749 172.067 48.0453Z" fill="#333333"/>
<path d="M178.387 39.6679H181.659V42.5188H181.738C181.96 41.6285 182.48 40.8415 183.212 40.2905C183.944 39.7394 184.842 39.4577 185.757 39.4926C186.152 39.4913 186.546 39.5344 186.931 39.621V42.8367C186.433 42.6839 185.913 42.6138 185.391 42.6291C184.893 42.6087 184.396 42.6968 183.934 42.8872C183.474 43.0775 183.059 43.3656 182.719 43.7317C182.38 44.0978 182.124 44.5332 181.968 45.0081C181.812 45.4829 181.761 45.9859 181.817 46.4826V56.4173H178.387V39.6679Z" fill="#333333"/>
<path d="M202.744 51.4996C202.282 54.5402 199.328 56.6269 195.549 56.6269C190.689 56.6269 187.672 53.3623 187.672 48.1249C187.672 42.8711 190.705 39.4639 195.405 39.4639C200.028 39.4639 202.936 42.6471 202.936 47.7256V48.9035H191.134V49.1113C191.079 49.7277 191.156 50.3487 191.359 50.9329C191.563 51.5173 191.888 52.0515 192.313 52.5002C192.739 52.949 193.253 53.3019 193.825 53.5355C194.397 53.7692 195.012 53.8783 195.628 53.8555C196.439 53.9317 197.253 53.7434 197.947 53.319C198.642 52.8945 199.182 52.2565 199.488 51.4996H202.744ZM191.15 46.5007H199.504C199.534 45.9464 199.451 45.3917 199.258 44.8715C199.064 44.3513 198.766 43.8767 198.381 43.4776C197.996 43.0784 197.534 42.7632 197.021 42.552C196.509 42.3406 195.959 42.2377 195.405 42.2496C194.846 42.2463 194.293 42.3539 193.776 42.5662C193.259 42.7785 192.789 43.0913 192.394 43.4865C191.999 43.8817 191.685 44.3515 191.471 44.8689C191.257 45.3862 191.149 45.9408 191.15 46.5007Z" fill="#333333"/>
<path d="M70.6807 16.1531C71.3998 16.1015 72.1214 16.2103 72.7933 16.4719C73.4653 16.7336 74.071 17.1415 74.5667 17.6662C75.0623 18.1909 75.4357 18.8193 75.6598 19.5063C75.8839 20.1931 75.953 20.9212 75.8624 21.638C75.8624 25.1646 73.9609 27.1917 70.6807 27.1917H66.7031V16.1531H70.6807ZM68.4136 25.6307H70.4897C71.0036 25.6614 71.5177 25.577 71.9949 25.3835C72.472 25.1899 72.9002 24.8922 73.248 24.5119C73.5959 24.1316 73.8548 23.6784 74.0059 23.1851C74.1569 22.6919 74.1963 22.1711 74.1213 21.6606C74.1909 21.1522 74.1474 20.6345 73.9941 20.145C73.8407 19.6553 73.5811 19.2058 73.2341 18.8285C72.887 18.4512 72.4609 18.1555 71.9865 17.9628C71.5121 17.7699 71.0009 17.6846 70.4897 17.713H68.4136V25.6307Z" fill="#333333"/>
<path d="M77.7959 23.0244C77.7437 22.477 77.8061 21.9246 77.9793 21.4028C78.1525 20.881 78.4325 20.4013 78.8015 19.9943C79.1706 19.5873 79.6204 19.2621 80.1221 19.0397C80.6238 18.8171 81.1663 18.7021 81.7149 18.7021C82.2635 18.7021 82.8061 18.8171 83.3078 19.0397C83.8096 19.2621 84.2592 19.5873 84.6283 19.9943C84.9973 20.4013 85.2773 20.881 85.4505 21.4028C85.6237 21.9246 85.6862 22.477 85.634 23.0244C85.6872 23.5725 85.6255 24.1255 85.4527 24.6483C85.28 25.1709 85.0002 25.6516 84.631 26.0594C84.2619 26.4672 83.8118 26.793 83.3096 27.0159C82.8073 27.239 82.2641 27.3541 81.7149 27.3541C81.1657 27.3541 80.6225 27.239 80.1202 27.0159C79.6181 26.793 79.1679 26.4672 78.7988 26.0594C78.4297 25.6516 78.1498 25.1709 77.9771 24.6483C77.8044 24.1255 77.7426 23.5725 77.7959 23.0244ZM83.9471 23.0244C83.9471 21.2187 83.1378 20.1627 81.7176 20.1627C80.292 20.1627 79.49 21.2187 79.49 23.0244C79.49 24.8447 80.292 25.8925 81.7176 25.8925C83.1378 25.8925 83.9471 24.8374 83.9471 23.0244Z" fill="#333333"/>
<path d="M96.0552 27.1918H94.3537L92.6362 21.0564H92.5065L90.7961 27.1918H89.111L86.8203 18.8613H88.4838L89.9725 25.2179H90.095L91.8035 18.8613H93.3769L95.0855 25.2179H95.2153L96.6968 18.8613H98.3368L96.0552 27.1918Z" fill="#333333"/>
<path d="M100.262 18.8604H101.841V20.1837H101.963C102.171 19.7084 102.522 19.3101 102.966 19.044C103.411 18.778 103.927 18.6576 104.443 18.6996C104.847 18.6692 105.253 18.7302 105.631 18.8785C106.009 19.0266 106.348 19.2581 106.624 19.5556C106.901 19.8532 107.106 20.2092 107.227 20.5973C107.347 20.9856 107.379 21.3958 107.319 21.798V27.1907H105.679V22.2109C105.679 20.8721 105.099 20.2064 103.886 20.2064C103.612 20.1936 103.338 20.2404 103.083 20.3437C102.828 20.4469 102.599 20.6043 102.41 20.8048C102.222 21.0053 102.079 21.2443 101.991 21.5053C101.903 21.7664 101.873 22.0435 101.902 22.3174V27.1908H100.262V18.8604Z" fill="#333333"/>
<path d="M109.934 15.6094H111.574V27.1918H109.934V15.6094Z" fill="#333333"/>
<path d="M113.854 23.0216C113.802 22.4741 113.865 21.9218 114.038 21.3999C114.211 20.8781 114.491 20.3983 114.86 19.9913C115.229 19.5843 115.679 19.2592 116.181 19.0366C116.683 18.8141 117.225 18.6992 117.774 18.6992C118.322 18.6992 118.865 18.8141 119.367 19.0366C119.868 19.2592 120.318 19.5843 120.687 19.9913C121.057 20.3983 121.337 20.8781 121.51 21.3999C121.684 21.9218 121.746 22.4741 121.693 23.0216C121.746 23.5697 121.685 24.1228 121.513 24.6455C121.339 25.1681 121.059 25.6487 120.69 26.0566C120.322 26.4642 119.871 26.7901 119.369 27.0131C118.866 27.236 118.324 27.3513 117.774 27.3513C117.225 27.3513 116.682 27.236 116.179 27.0131C115.677 26.7901 115.227 26.4642 114.858 26.0566C114.489 25.6487 114.209 25.1681 114.036 24.6455C113.863 24.1228 113.801 23.5697 113.854 23.0216ZM120.006 23.0216C120.006 21.2159 119.197 20.1599 117.777 20.1599C116.351 20.1599 115.549 21.2159 115.549 23.0216C115.549 24.8418 116.351 25.8897 117.777 25.8897C119.197 25.8897 120.006 24.8346 120.006 23.0216Z" fill="#333333"/>
<path d="M123.418 24.8374C123.418 23.338 124.531 22.4735 126.509 22.3507L128.76 22.2206V21.5015C128.76 20.6218 128.179 20.1249 127.058 20.1249C126.143 20.1249 125.508 20.4618 125.327 21.0508H123.738C123.906 19.6199 125.249 18.7021 127.134 18.7021C129.218 18.7021 130.392 19.7418 130.392 21.5015V27.1934H128.814V26.0227H128.684C128.421 26.4425 128.051 26.7849 127.613 27.0148C127.173 27.2445 126.682 27.3536 126.188 27.3307C125.839 27.367 125.487 27.3296 125.152 27.2211C124.819 27.1125 124.512 26.935 124.252 26.7002C123.99 26.4652 123.781 26.1781 123.638 25.8574C123.494 25.5365 123.419 25.1891 123.418 24.8374ZM128.76 24.1257V23.4292L126.731 23.5593C125.586 23.6361 125.067 24.0263 125.067 24.7607C125.067 25.5105 125.715 25.9467 126.608 25.9467C126.869 25.9732 127.133 25.9469 127.384 25.8689C127.635 25.7911 127.868 25.6634 128.068 25.4935C128.27 25.3236 128.434 25.1149 128.553 24.88C128.672 24.6449 128.743 24.3885 128.76 24.1257Z" fill="#333333"/>
<path d="M132.551 23.0229C132.551 20.3907 133.901 18.7232 136.001 18.7232C136.52 18.6991 137.036 18.8239 137.487 19.0826C137.938 19.3415 138.307 19.7237 138.549 20.1847H138.672V15.6094H140.312V27.1918H138.74V25.8756H138.611C138.349 26.3335 137.968 26.7109 137.508 26.9671C137.047 27.2233 136.527 27.3484 136.001 27.329C133.886 27.3291 132.551 25.6616 132.551 23.0229ZM134.246 23.0229C134.246 24.7899 135.076 25.8531 136.466 25.8531C137.848 25.8531 138.702 24.7745 138.702 23.0302C138.702 21.294 137.839 20.2 136.466 20.2C135.085 20.2 134.246 21.2705 134.246 23.0229Z" fill="#333333"/>
<path d="M147.097 23.0244C147.045 22.477 147.107 21.9246 147.279 21.4028C147.453 20.881 147.733 20.4013 148.103 19.9943C148.471 19.5873 148.921 19.2621 149.423 19.0397C149.925 18.8171 150.467 18.7021 151.015 18.7021C151.564 18.7021 152.107 18.8171 152.609 19.0397C153.11 19.2621 153.56 19.5873 153.929 19.9943C154.298 20.4013 154.578 20.881 154.751 21.4028C154.925 21.9246 154.987 22.477 154.935 23.0244C154.988 23.5725 154.926 24.1255 154.753 24.6483C154.581 25.1709 154.301 25.6516 153.931 26.0594C153.562 26.4672 153.113 26.793 152.61 27.0159C152.108 27.239 151.564 27.3541 151.015 27.3541C150.466 27.3541 149.923 27.239 149.421 27.0159C148.919 26.793 148.468 26.4672 148.099 26.0594C147.73 25.6516 147.451 25.1709 147.278 24.6483C147.105 24.1255 147.044 23.5725 147.097 23.0244ZM153.248 23.0244C153.248 21.2187 152.439 20.1627 151.019 20.1627C149.593 20.1627 148.791 21.2187 148.791 23.0244C148.791 24.8447 149.593 25.8925 151.019 25.8925C152.439 25.8925 153.248 24.8374 153.248 23.0244Z" fill="#333333"/>
<path d="M157.137 18.8604H158.715V20.1837H158.838C159.046 19.7084 159.396 19.3101 159.841 19.044C160.285 18.778 160.802 18.6576 161.318 18.6996C161.722 18.6692 162.128 18.7302 162.505 18.8785C162.883 19.0266 163.222 19.2581 163.498 19.5556C163.775 19.8532 163.981 20.2092 164.101 20.5973C164.221 20.9856 164.253 21.3958 164.194 21.798V27.1907H162.554V22.2109C162.554 20.8721 161.973 20.2064 160.76 20.2064C160.486 20.1936 160.212 20.2404 159.957 20.3437C159.702 20.4469 159.474 20.6043 159.285 20.8048C159.095 21.0053 158.953 21.2443 158.865 21.5053C158.777 21.7664 158.747 22.0435 158.776 22.3174V27.1908H157.137V18.8604Z" fill="#333333"/>
<path d="M173.461 16.7871V18.899H175.261V20.2838H173.461V24.5674C173.461 25.44 173.82 25.822 174.636 25.822C174.845 25.8214 175.053 25.8088 175.261 25.7841V27.1536C174.967 27.2063 174.668 27.2345 174.369 27.2375C172.545 27.2375 171.819 26.5944 171.819 24.9883V20.2837H170.5V18.8989H171.819V16.7871H173.461Z" fill="#333333"/>
<path d="M177.5 15.6094H179.126V20.2H179.256C179.474 19.7203 179.834 19.3197 180.288 19.0526C180.741 18.7855 181.266 18.6651 181.79 18.7078C182.192 18.6858 182.594 18.7531 182.968 18.9049C183.34 19.0567 183.676 19.2893 183.95 19.5858C184.222 19.8824 184.427 20.2359 184.548 20.6209C184.67 21.0059 184.706 21.4132 184.651 21.8134V27.1918H183.01V22.219C183.01 20.8884 182.392 20.2145 181.234 20.2145C180.951 20.1914 180.667 20.2302 180.402 20.3283C180.137 20.4264 179.896 20.5815 179.697 20.7827C179.498 20.9839 179.344 21.2262 179.248 21.493C179.152 21.7596 179.115 22.044 179.141 22.3265V27.1918H177.5V15.6094Z" fill="#333333"/>
<path d="M194.217 24.9413C193.994 25.7027 193.512 26.3613 192.854 26.8018C192.195 27.2423 191.403 27.4369 190.617 27.3513C190.069 27.3658 189.525 27.2607 189.022 27.0433C188.519 26.8258 188.069 26.5013 187.704 26.0922C187.339 25.6831 187.067 25.1992 186.906 24.6742C186.747 24.1491 186.703 23.5954 186.778 23.0515C186.705 22.506 186.749 21.9511 186.909 21.4245C187.069 20.8979 187.34 20.4118 187.703 19.999C188.066 19.5863 188.513 19.2568 189.015 19.0325C189.516 18.8083 190.06 18.6946 190.61 18.6994C192.921 18.6994 194.317 20.283 194.317 22.8989V23.4725H188.449V23.5646C188.422 23.8703 188.461 24.178 188.561 24.468C188.66 24.758 188.82 25.0239 189.028 25.2486C189.236 25.4733 189.489 25.6519 189.77 25.7728C190.052 25.8938 190.355 25.9546 190.662 25.9511C191.054 25.9983 191.451 25.9275 191.803 25.7477C192.156 25.5678 192.446 25.2871 192.639 24.9413H194.217ZM188.449 22.2566H192.646C192.667 21.977 192.628 21.6962 192.535 21.4322C192.44 21.1682 192.292 20.9268 192.1 20.7235C191.907 20.5203 191.675 20.3597 191.416 20.2521C191.158 20.1444 190.88 20.0922 190.6 20.0985C190.316 20.0951 190.035 20.1484 189.773 20.2556C189.509 20.3627 189.271 20.5216 189.071 20.7228C188.87 20.9239 188.711 21.1632 188.605 21.4266C188.497 21.6901 188.444 21.9722 188.449 22.2566Z" fill="#333333"/>
</svg>
