<svg width="1310" height="514" viewBox="0 0 1310 514" fill="none" xmlns="http://www.w3.org/2000/svg">
<path fill-rule="evenodd" clip-rule="evenodd" d="M25 0C11.1929 0 0 11.1929 0 25V489C0 502.807 11.1929 514 25 514H68.088C76.4501 514 84.3018 509.978 89.1879 503.192L148.786 420.417C155.27 411.411 155.324 399.282 148.919 390.219L86.5757 302.006C74.4049 284.784 86.7204 261 107.808 261H137.542C145.85 261 153.657 264.97 158.551 271.683L244.045 388.953C250.673 398.044 250.702 410.365 244.118 419.487L195.855 486.352C187.529 497.886 195.771 514 209.996 514H225.75C232.801 514 237.044 506.184 233.204 500.272C231.205 497.194 231.303 493.203 233.452 490.227L251.787 464.841L253.018 463.137C263.277 448.932 284.364 448.736 294.886 462.747L325.573 503.612C330.484 510.152 338.186 514 346.364 514H1285C1298.81 514 1310 502.807 1310 489V25C1310 11.1929 1298.81 0 1285 0H25ZM967 173C967 161.954 958.046 153 947 153H875C860.641 153 849 141.359 849 127V66C849 51.6406 860.641 40 875 40H980C994.359 40 1006 51.6406 1006 66C1006 78.1503 1015.85 88 1028 88H1208C1222.36 88 1234 99.6406 1234 114V216C1234 230.359 1222.36 242 1208 242H1123C1110.3 242 1100 252.297 1100 265C1100 277.703 1110.3 288 1123 288H1244C1258.36 288 1270 299.641 1270 314V448C1270 462.359 1258.36 474 1244 474H996C981.641 474 970 462.359 970 448V443C970 428.641 958.359 417 944 417H790C775.641 417 764 405.359 764 391V219C764 204.641 775.641 193 790 193H947C958.046 193 967 184.046 967 173ZM279.971 261C271.752 261 264.017 264.886 259.111 271.48L240.663 296.276C233.901 305.365 233.802 317.786 240.419 326.981L254.075 345.959C264.505 360.454 286.108 360.361 296.413 345.777L327.343 302.004C339.511 284.782 327.195 261 306.108 261H279.971Z" fill="#F0F0F0"/>
</svg>
