<svg width="23" height="16" viewBox="0 0 23 16" fill="none" xmlns="http://www.w3.org/2000/svg">
<path fill-rule="evenodd" clip-rule="evenodd" d="M20.7341 2.24533L12.3168 9.216C12.0776 9.41417 11.7767 9.52262 11.4661 9.52262C11.1555 9.52262 10.8546 9.41417 10.6154 9.216L2.20211 2.24533C2.15695 2.38121 2.13399 2.52348 2.13411 2.66667V13.3333C2.13411 13.687 2.27459 14.0261 2.52464 14.2761C2.77469 14.5262 3.11383 14.6667 3.46745 14.6667H19.4674C19.8211 14.6667 20.1602 14.5262 20.4103 14.2761C20.6603 14.0261 20.8008 13.687 20.8008 13.3333V2.66667C20.8013 2.52355 20.7788 2.38128 20.7341 2.24533ZM3.46745 0H19.4674C20.1747 0 20.853 0.280951 21.3531 0.781048C21.8532 1.28115 22.1341 1.95942 22.1341 2.66667V13.3333C22.1341 14.0406 21.8532 14.7189 21.3531 15.219C20.853 15.719 20.1747 16 19.4674 16H3.46745C2.7602 16 2.08193 15.719 1.58183 15.219C1.08173 14.7189 0.800781 14.0406 0.800781 13.3333V2.66667C0.800781 1.95942 1.08173 1.28115 1.58183 0.781048C2.08193 0.280951 2.7602 0 3.46745 0ZM3.18745 1.33333L10.6221 7.47067C10.8602 7.66734 11.1592 7.77526 11.4681 7.77599C11.7769 7.77671 12.0764 7.67021 12.3154 7.47467L19.8248 1.33333H3.18745Z" fill="#1A6F90"/>
</svg>
