<svg width="17" height="18" viewBox="0 0 17 18" fill="none" xmlns="http://www.w3.org/2000/svg">
<path fill-rule="evenodd" clip-rule="evenodd" d="M16.66 9.19322C16.66 8.59049 16.6059 8.01095 16.5055 7.45458H8.5V10.7425H13.0746C12.8775 11.805 12.2786 12.7053 11.3784 13.308V15.4407H14.1255C15.7327 13.961 16.66 11.7819 16.66 9.19322Z" fill="#4285F4"/>
<path fill-rule="evenodd" clip-rule="evenodd" d="M8.49826 17.5C10.7933 17.5 12.7174 16.7389 14.1237 15.4407L11.3767 13.308C10.6155 13.818 9.6419 14.1193 8.49826 14.1193C6.2844 14.1193 4.41053 12.6241 3.74212 10.615H0.902344V12.8173C2.30098 15.5953 5.17553 17.5 8.49826 17.5Z" fill="#34A853"/>
<path fill-rule="evenodd" clip-rule="evenodd" d="M3.74387 10.6151C3.57387 10.1051 3.47728 9.56028 3.47728 9.00006C3.47728 8.43983 3.57387 7.89505 3.74387 7.38505V5.18278H0.904092C0.32841 6.33028 0 7.62846 0 9.00006C0 10.3716 0.32841 11.6698 0.904092 12.8173L3.74387 10.6151Z" fill="#FBBC05"/>
<path fill-rule="evenodd" clip-rule="evenodd" d="M8.49826 3.88072C9.74622 3.88072 10.8667 4.30958 11.7476 5.15186L14.1855 2.7139C12.7135 1.3423 10.7894 0.500031 8.49826 0.500031C5.17553 0.500031 2.30098 2.40481 0.902344 5.18277L3.74212 7.38504C4.41053 5.37595 6.2844 3.88072 8.49826 3.88072Z" fill="#EA4335"/>
</svg>
