<svg width="18" height="20" viewBox="0 0 18 20" fill="none" xmlns="http://www.w3.org/2000/svg">
<path d="M2.86153 2.4935C4.50607 0.909445 6.73654 0.0195313 9.06226 0.0195312C11.388 0.0195313 13.6185 0.909445 15.263 2.4935C16.9075 4.07756 17.8314 6.226 17.8314 8.4662C17.8314 10.7064 16.9075 12.8548 15.263 14.4389L14.0676 15.5778C13.1864 16.4101 12.0433 17.481 10.6374 18.7906C10.2148 19.1842 9.65004 19.4041 9.06226 19.4041C8.47449 19.4041 7.90971 19.1842 7.48715 18.7906L3.97136 15.4963C3.52823 15.0782 3.15963 14.726 2.86153 14.4389C2.0472 13.6546 1.40123 12.7234 0.960518 11.6986C0.519803 10.6738 0.292969 9.57544 0.292969 8.4662C0.292969 7.35696 0.519803 6.25857 0.960518 5.23377C1.40123 4.20898 2.0472 3.27783 2.86153 2.4935ZM14.1945 3.52177C13.5204 2.87252 12.7201 2.35753 11.8394 2.00618C10.9586 1.65483 10.0147 1.47402 9.0614 1.47407C8.10813 1.47411 7.16419 1.65501 6.2835 2.00644C5.4028 2.35787 4.60259 2.87295 3.92855 3.52226C3.25452 4.17157 2.71986 4.9424 2.3551 5.79074C1.99034 6.63908 1.80262 7.54832 1.80267 8.46654C1.80271 9.38476 1.99052 10.294 2.35537 11.1423C2.72022 11.9906 3.25496 12.7614 3.92906 13.4106L5.42763 14.8347C6.25144 15.6117 7.28875 16.5818 8.53756 17.7449C8.67838 17.8759 8.8665 17.9491 9.06226 17.9491C9.25803 17.9491 9.44615 17.8759 9.58696 17.7449L13.0061 14.5437C13.4794 14.0965 13.8752 13.7191 14.1945 13.4106C15.5556 12.0995 16.3202 10.3213 16.3202 8.46717C16.3202 6.61303 15.5556 4.83482 14.1945 3.52371M9.06226 5.8218C9.45929 5.8218 9.85243 5.89712 10.2192 6.04347C10.586 6.18982 10.9193 6.40433 11.2001 6.67474C11.4808 6.94516 11.7035 7.26619 11.8555 7.61951C12.0074 7.97283 12.0856 8.35151 12.0856 8.73394C12.0856 9.11636 12.0074 9.49505 11.8555 9.84836C11.7035 10.2017 11.4808 10.5227 11.2001 10.7931C10.9193 11.0635 10.586 11.2781 10.2192 11.4244C9.85243 11.5707 9.45929 11.6461 9.06226 11.6461C8.27012 11.6321 7.5153 11.3193 6.96021 10.7747C6.40512 10.2302 6.09412 9.49756 6.09412 8.73442C6.09412 7.97128 6.40512 7.23863 6.96021 6.69411C7.5153 6.14958 8.27012 5.8367 9.06226 5.82277M9.06226 7.27787C8.66108 7.27787 8.27633 7.43138 7.99264 7.70462C7.70896 7.97787 7.54959 8.34848 7.54959 8.73491C7.54959 9.12134 7.70896 9.49194 7.99264 9.76519C8.27633 10.0384 8.66108 10.1919 9.06226 10.1919C9.45656 10.1821 9.83129 10.0244 10.1066 9.7523C10.3818 9.48021 10.5359 9.11531 10.5359 8.73539C10.5359 8.35547 10.3818 7.99058 10.1066 7.71849C9.83129 7.4464 9.45656 7.28864 9.06226 7.27884" fill="#1A6F90"/>
</svg>
