<svg width="168" height="27" viewBox="0 0 168 27" fill="none" xmlns="http://www.w3.org/2000/svg">
<path d="M142.723 25.8169V2.15491H153.911C156.525 2.15491 158.824 2.63942 160.807 3.60843C162.79 4.57744 164.334 5.94082 165.438 7.69857C166.565 9.45632 167.128 11.5521 167.128 13.9859C167.128 16.3972 166.565 18.4929 165.438 20.2732C164.334 22.031 162.79 23.3943 160.807 24.3634C158.824 25.3324 156.525 25.8169 153.911 25.8169H142.723ZM149.416 20.476H153.641C154.993 20.476 156.165 20.2281 157.156 19.7324C158.171 19.2141 158.959 18.4704 159.523 17.5014C160.086 16.5098 160.368 15.338 160.368 13.9859C160.368 12.6112 160.086 11.4394 159.523 10.4704C158.959 9.50139 158.171 8.76899 157.156 8.27322C156.165 7.75491 154.993 7.49575 153.641 7.49575H149.416V20.476Z" fill="#333333"/>
<path d="M122.09 25.8169V2.15491H128.783V20.5098H140.073V25.8169H122.09Z" fill="#333333"/>
<path d="M105.531 11.3155H116.517V16.3183H105.531V11.3155ZM106.004 20.645H118.376V25.8169H99.3789V2.15491H117.937V7.32674H106.004V20.645Z" fill="#333333"/>
<path d="M1.18359 25.8169V2.15491H6.68518L19.7135 17.907H17.1146V2.15491H23.6625V25.8169H18.1609L5.13258 10.0648H7.73149V25.8169H1.18359Z" fill="#333333"/>
<path fill-rule="evenodd" clip-rule="evenodd" d="M31.5733 16.3183V11.3138L31.0926 11.3155V16.3183H31.5733Z" fill="#333333"/>
<path d="M31.0926 16.3183V11.3155L31.5733 11.3138V7.32674H43.6934V2.15491H24.8438V25.8169H44.1397V20.645H31.5733V16.3183H31.0926Z" fill="#333333"/>
<path d="M54.4212 16.3183V11.2326L31.5733 11.3138V16.3183H54.4212Z" fill="#333333"/>
<path d="M62.1008 2.15491L59.0872 6.24396L62.7791 11.4234L69.2664 2.15491H62.1008Z" fill="#107980"/>
<path d="M55.2031 11.4507L55.1696 16.2169L53.5024 13.8353L44.957 25.8169H52.5244L61.1589 13.7406L52.7923 2.15491H45.3254L53.5024 13.8353L55.2031 11.4507Z" fill="#107980"/>
<path d="M55.1696 16.2169L55.2031 11.4507L53.5024 13.8353L55.1696 16.2169Z" fill="#107980"/>
<path d="M62.6441 16.194L69.8021 25.8169H62.1678L59.1337 21.1008L60.8889 18.6474L62.6441 16.194Z" fill="#107980"/>
<path d="M78.2868 25.8169V7.46195H70.9844V2.15491H92.2801V7.46195H85.0117V25.8169H78.2868Z" fill="#333333"/>
</svg>
