<svg width="249" height="74" viewBox="0 0 249 74" fill="none" xmlns="http://www.w3.org/2000/svg">
<path d="M239.625 0H9.53125C4.42262 0 0.28125 4.14137 0.28125 9.25V64.75C0.28125 69.8586 4.42262 74 9.53125 74H239.625C244.734 74 248.875 69.8586 248.875 64.75V9.25C248.875 4.14137 244.734 0 239.625 0Z" fill="white"/>
<mask id="mask0_204_39" style="mask-type:luminance" maskUnits="userSpaceOnUse" x="0" y="0" width="249" height="74">
<path d="M248.992 0H0.398438V74H248.992V0Z" fill="white"/>
</mask>
<g mask="url(#mask0_204_39)">
<path d="M239.442 73.8159H9.7727C4.71998 73.8159 0.585938 69.6741 0.585938 64.6119V9.38806C0.585938 4.32587 4.71998 0.184082 9.7727 0.184082H239.442C244.495 0.184082 248.628 4.32587 248.628 9.38806V64.6119C248.628 69.6741 244.495 73.8159 239.442 73.8159Z" fill="white"/>
<path d="M38.4672 35.7554L18.9062 56.556C18.9071 56.5602 18.9084 56.5638 18.9093 56.5681C19.5091 58.8266 21.5682 60.4898 24.012 60.4898C24.9889 60.4898 25.9061 60.2252 26.6927 59.7606L26.7551 59.724L48.7733 46.9948L38.4672 35.7554Z" fill="#EB3131"/>
<path d="M58.2537 32.2135L58.2349 32.2005L48.7291 26.6797L38.0195 36.2272L48.7663 46.9927L58.222 41.5265C59.8798 40.63 61.0052 38.879 61.0052 36.8599C61.0052 34.8553 59.895 33.1131 58.2537 32.2135Z" fill="#F6B60B"/>
<path d="M18.9059 17.0771C18.7883 17.5116 18.7266 17.9665 18.7266 18.4391V55.1944C18.7266 55.6661 18.7876 56.1227 18.9067 56.5556L39.1407 36.2872L18.9059 17.0771Z" fill="#5778C5"/>
<path d="M38.612 36.8164L48.7367 26.6758L26.7434 13.9006C25.944 13.4208 25.011 13.144 24.0126 13.144C21.5689 13.144 19.507 14.8101 18.9069 17.0715L18.9063 17.0771L38.612 36.8164Z" fill="#3BAD49"/>
</g>
<path d="M87.7711 19.0401C87.7711 20.5823 87.3152 21.8105 86.4023 22.7267C85.3653 23.816 84.0138 24.3611 82.3523 24.3611C80.761 24.3611 79.4082 23.8088 78.2957 22.7029C77.1812 21.5977 76.625 20.2272 76.625 18.5921C76.625 16.9561 77.1812 15.5864 78.2957 14.4804C79.4082 13.3753 80.761 12.8223 82.3523 12.8223C83.1417 12.8223 83.8976 12.9769 84.6153 13.2855C85.3329 13.5946 85.9086 14.0051 86.3392 14.5193L85.3703 15.4907C84.6405 14.617 83.6356 14.1806 82.3523 14.1806C81.1917 14.1806 80.1883 14.589 79.3415 15.4066C78.4945 16.225 78.0712 17.2862 78.0712 18.5921C78.0712 19.8979 78.4945 20.9591 79.3415 21.7775C80.1883 22.595 81.1917 23.0035 82.3523 23.0035C83.5832 23.0035 84.6096 22.5928 85.4312 21.7704C85.9646 21.2346 86.2731 20.4897 86.3557 19.5333H82.3523V18.2066H87.6944C87.7459 18.4951 87.7711 18.7719 87.7711 19.0401Z" fill="#333333"/>
<path d="M87.7752 19.0401H87.5914C87.5899 20.5472 87.1507 21.7178 86.2764 22.5965L86.2745 22.598L86.2737 22.5994C85.2696 23.6512 83.9791 24.1748 82.3563 24.177C80.8076 24.1748 79.5113 23.6456 78.429 22.5728C77.3489 21.4977 76.8149 20.1854 76.8128 18.5921C76.8149 16.9979 77.3489 15.6863 78.429 14.612C79.5113 13.5384 80.8076 13.0085 82.3563 13.0063C83.1221 13.0063 83.8513 13.156 84.5468 13.4544C85.243 13.755 85.7929 14.1489 86.2026 14.638L86.3434 14.5193L86.2134 14.3891L85.2444 15.3613L85.3743 15.4907L85.5159 15.3728C84.752 14.4559 83.68 13.9938 82.3563 13.9964C81.1529 13.995 80.0941 14.4257 79.2185 15.2743C78.3343 16.1258 77.8901 17.2465 77.8916 18.5921C77.8901 19.9375 78.3343 21.0583 79.2185 21.9097C80.0941 22.7583 81.1529 23.1891 82.3563 23.1876C83.6281 23.1898 84.7119 22.7576 85.5652 21.9004C86.1352 21.328 86.4582 20.535 86.5428 19.5491L86.56 19.3492H82.54V18.3906H87.6984V18.2066L87.5175 18.2389C87.5678 18.5181 87.5914 18.7833 87.5914 19.0401H87.7752H87.9589C87.9589 18.7603 87.933 18.4727 87.8792 18.1736L87.852 18.0225H82.1726V19.5333V19.7173H86.3597V19.5333L86.1767 19.5174C86.0957 20.4437 85.8013 21.1411 85.3054 21.6402C84.5159 22.4283 83.5471 22.8172 82.3563 22.8194C81.2388 22.8179 80.2908 22.4324 79.4733 21.6451C78.6638 20.8606 78.261 19.8591 78.259 18.5921C78.261 17.325 78.6638 16.3234 79.4733 15.5389C80.2908 14.7516 81.2388 14.3661 82.3563 14.3647C83.5987 14.3676 84.5369 14.7789 85.2337 15.6094L85.3629 15.7633L86.4732 14.6494L86.5923 14.5302L86.4839 14.4012C86.0325 13.8621 85.4311 13.4341 84.6918 13.1164C83.9511 12.7977 83.1695 12.6382 82.3563 12.6382C80.7229 12.6367 79.3133 13.2119 78.1699 14.3502C77.0223 15.4864 76.4439 16.9145 76.4453 18.5921C76.4439 20.2689 77.0223 21.6976 78.1707 22.8345C79.3133 23.9721 80.7229 24.5466 82.3563 24.5451C84.0573 24.5466 85.4683 23.9805 86.5393 22.8539L86.4064 22.7266L86.5363 22.8568C87.488 21.904 87.9602 20.6169 87.9589 19.0401H87.7752Z" fill="#333333"/>
<path d="M96.2404 14.4262H91.2199V17.9281H95.7473V19.2554H91.2199V22.7573H96.2404V24.1142H89.8047V13.0693H96.2404V14.4262Z" fill="#333333"/>
<path d="M96.2444 14.4262V14.2421H91.0403V18.1122H95.5677V19.0707L91.0403 19.0713V22.9414H96.0607V23.93H89.9925V13.2534H96.0607V14.4262H96.2444H96.4281V13.0693V12.8853H89.625V24.2981H96.4281V22.7573V22.5731H91.4077V19.4395H95.9351V17.9281V17.744H91.4077V14.6103H96.4281V14.4262H96.2444Z" fill="#333333"/>
<path d="M102.215 24.1142H100.798V14.4262H97.7188V13.0693H105.294V14.4262H102.215V24.1142Z" fill="#333333"/>
<path d="M102.212 24.1141V23.93H100.978V14.2421H97.8987V13.2534H105.107V14.2421H102.028V24.1141H102.212H102.395V14.6103H105.474V13.0693V12.8853H97.5312V14.4262V14.6103H100.61V24.2981H102.212H102.395V24.1141H102.212Z" fill="#333333"/>
<path d="M110.773 24.1142V13.0693H112.189V24.1142H110.773Z" fill="#333333"/>
<path d="M110.774 24.1141H110.957V13.2534H112.006V23.93H110.774V24.1141V24.2981H112.19H112.373V12.8853H110.774H110.59V24.2981H110.774V24.1141Z" fill="#333333"/>
<path d="M118.473 24.1142H117.056V14.4262H113.977V13.0693H121.552V14.4262H118.473V24.1142Z" fill="#333333"/>
<path d="M118.477 24.1141V23.93H117.243V14.2421H114.164V13.2534H121.372V14.2421H118.293V24.1141H118.477H118.661V14.6103H121.74V13.0693V12.8853H113.797V14.4262V14.6103H116.876V24.2981H118.477H118.661V24.1141H118.477Z" fill="#333333"/>
<path d="M128.857 21.7625C129.674 22.59 130.671 23.0035 131.852 23.0035C133.034 23.0035 134.033 22.59 134.847 21.7625C135.663 20.9349 136.072 19.8769 136.072 18.5921C136.072 17.3072 135.663 16.2493 134.847 15.4216C134.033 14.594 133.034 14.1806 131.852 14.1806C130.671 14.1806 129.674 14.594 128.857 15.4216C128.043 16.2493 127.634 17.3072 127.634 18.5921C127.634 19.8769 128.043 20.9349 128.857 21.7625ZM135.894 22.687C134.811 23.8038 133.463 24.3611 131.852 24.3611C130.24 24.3611 128.893 23.8038 127.812 22.687C126.727 21.5717 126.188 20.2064 126.188 18.5921C126.188 16.9777 126.727 15.6122 127.812 14.497C128.893 13.3803 130.24 12.8223 131.852 12.8223C133.455 12.8223 134.799 13.3832 135.887 14.5043C136.975 15.6252 137.519 16.9878 137.519 18.5921C137.519 20.2064 136.976 21.5717 135.894 22.687Z" fill="#333333"/>
<path d="M128.858 21.7624L128.727 21.8919C129.573 22.7526 130.629 23.1898 131.853 23.1876C133.076 23.1898 134.134 22.7526 134.978 21.8919C135.83 21.0304 136.259 19.9157 136.258 18.5921C136.259 17.2683 135.83 16.1538 134.978 15.2922C134.134 14.4314 133.076 13.9942 131.853 13.9964C130.629 13.9942 129.573 14.4314 128.727 15.2922C127.877 16.1538 127.448 17.2683 127.45 18.5921C127.448 19.9157 127.877 21.0304 128.727 21.8919L128.858 21.7624L128.988 21.633C128.209 20.8383 127.819 19.8389 127.818 18.5921C127.819 17.3453 128.209 16.3457 128.988 15.551C129.776 14.7566 130.714 14.3669 131.853 14.3646C132.99 14.3669 133.932 14.7566 134.716 15.551C135.498 16.3457 135.888 17.3453 135.889 18.5921C135.888 19.8389 135.498 20.8383 134.716 21.633C133.932 22.4275 132.99 22.8172 131.853 22.8194C130.714 22.8172 129.776 22.4275 128.988 21.633L128.858 21.7624ZM135.896 22.687L135.764 22.5592C134.71 23.6406 133.422 24.1748 131.853 24.177C130.283 24.1748 128.995 23.6406 127.943 22.5592C126.892 21.474 126.373 20.1654 126.372 18.5921C126.373 17.0188 126.892 15.7101 127.943 14.625C128.995 13.5434 130.283 13.0085 131.853 13.0063C133.412 13.0085 134.698 13.5456 135.757 14.6328C136.811 15.7229 137.334 17.0295 137.335 18.5921C137.334 20.1654 136.814 21.474 135.764 22.5592L135.896 22.687L136.027 22.815C137.141 21.669 137.704 20.2472 137.703 18.5921C137.704 16.9461 137.139 15.5274 136.021 14.3763C134.9 13.2206 133.498 12.6361 131.853 12.6382C130.2 12.6361 128.793 13.2178 127.68 14.3691C126.565 15.516 126.003 16.9368 126.004 18.5921C126.003 20.2472 126.565 21.669 127.68 22.8157C128.793 23.9669 130.2 24.5466 131.853 24.5451C133.506 24.5466 134.913 23.9662 136.027 22.815L135.896 22.687Z" fill="#333333"/>
<path d="M139.504 24.1142V13.0693H141.228L146.585 21.6614H146.646L146.585 19.533V13.0693H148.002V24.1142H146.525L140.919 15.1056H140.858L140.919 17.235V24.1142H139.504Z" fill="#333333"/>
<path d="M139.508 24.1141H139.692V13.2534H141.13L146.487 21.8455H146.65H146.839L146.773 19.5301V13.2534H147.824V23.93H146.631L141.025 14.9215H140.862H140.674L140.739 17.2378V23.93H139.508V24.1141V24.2981H140.923H141.107V17.2319L141.046 15.1006L140.862 15.1056V15.2897H140.923V15.1056L140.767 15.2035L146.427 24.2981H148.008H148.19V12.8853H146.59H146.406V19.5351L146.466 21.6664L146.65 21.6614V21.4773H146.59V21.6614L146.745 21.5637L141.334 12.8853H139.508H139.324V24.2981H139.508V24.1141Z" fill="#333333"/>
<path d="M197.126 55.4077H200.554V32.3956H197.126V55.4077ZM228.006 40.6851L224.076 50.662H223.958L219.879 40.6851H216.186L222.302 54.6296L218.815 62.3861H222.392L231.818 40.6851H228.006ZM208.563 52.794C207.439 52.794 205.873 52.2316 205.873 50.8396C205.873 49.0634 207.825 48.3825 209.507 48.3825C211.016 48.3825 211.724 48.7082 212.641 49.1526C212.374 51.2839 210.542 52.794 208.563 52.794ZM208.976 40.1815C206.494 40.1815 203.924 41.2774 202.86 43.7051L205.903 44.9778C206.553 43.7051 207.764 43.2901 209.035 43.2901C210.808 43.2901 212.611 44.3565 212.641 46.2513V46.4877C212.02 46.1325 210.691 45.5997 209.064 45.5997C205.785 45.5997 202.445 47.4052 202.445 50.7805C202.445 53.8596 205.134 55.8434 208.147 55.8434C210.454 55.8434 211.724 54.8073 212.523 53.5936H212.641V55.3696H215.95V46.5467C215.95 42.4618 212.907 40.1815 208.976 40.1815ZM187.788 43.4863H182.912V35.5984H187.788C190.352 35.5984 191.806 37.7245 191.806 39.5422C191.806 41.3256 190.352 43.4863 187.788 43.4863ZM187.7 32.3956H179.485V55.4077H182.912V46.6891H187.7C191.5 46.6891 195.234 43.933 195.234 39.5422C195.234 35.1518 191.5 32.3956 187.7 32.3956ZM142.904 52.7982C140.535 52.7982 138.552 50.8114 138.552 48.0826C138.552 45.3251 140.535 43.3081 142.904 43.3081C145.242 43.3081 147.077 45.3251 147.077 48.0826C147.077 50.8114 145.242 52.7982 142.904 52.7982ZM146.841 41.9736H146.722C145.953 41.0545 144.472 40.2241 142.607 40.2241C138.7 40.2241 135.119 43.664 135.119 48.0826C135.119 52.4719 138.7 55.8822 142.607 55.8822C144.472 55.8822 145.953 55.0517 146.722 54.1033H146.841V55.2301C146.841 58.2258 145.242 59.8271 142.667 59.8271C140.565 59.8271 139.263 58.3142 138.73 57.0392L135.74 58.2847C136.599 60.3605 138.878 62.9112 142.667 62.9112C146.693 62.9112 150.097 60.5382 150.097 54.7555V40.6986H146.841V41.9736ZM152.464 55.4077H155.898V32.3949H152.464V55.4077ZM160.96 47.8159C160.871 44.7907 163.298 43.2491 165.045 43.2491C166.407 43.2491 167.561 43.9307 167.945 44.9102L160.96 47.8159ZM171.616 45.2064C170.966 43.4561 168.981 40.2241 164.926 40.2241C160.9 40.2241 157.556 43.3973 157.556 48.0532C157.556 52.4424 160.871 55.8822 165.311 55.8822C168.893 55.8822 170.966 53.6877 171.824 52.4127L169.159 50.6331C168.272 51.9382 167.058 52.7982 165.311 52.7982C163.565 52.7982 162.322 51.9972 161.522 50.426L171.971 46.0959L171.616 45.2064ZM88.3686 42.6263V45.9476H96.3014C96.0646 47.8159 95.443 49.1799 94.4957 50.1291C93.3417 51.286 91.536 52.5609 88.3686 52.5609C83.4844 52.5609 79.6662 48.6168 79.6662 43.7236C79.6662 38.8304 83.4844 34.8858 88.3686 34.8858C91.0033 34.8858 92.9268 35.924 94.3478 37.2585L96.6862 34.916C94.7031 33.0175 92.0684 31.5645 88.3686 31.5645C81.6787 31.5645 76.0547 37.0213 76.0547 43.7236C76.0547 50.426 81.6787 55.8822 88.3686 55.8822C91.9802 55.8822 94.7032 54.6966 96.8341 52.4719C99.0246 50.2772 99.7057 47.1931 99.7057 44.7023C99.7057 43.9307 99.6467 43.2196 99.5276 42.6263H88.3686ZM108.725 52.7982C106.356 52.7982 104.313 50.8409 104.313 48.0532C104.313 45.2358 106.356 43.3081 108.725 43.3081C111.092 43.3081 113.135 45.2358 113.135 48.0532C113.135 50.8409 111.092 52.7982 108.725 52.7982ZM108.725 40.2241C104.402 40.2241 100.88 43.5158 100.88 48.0532C100.88 52.5609 104.402 55.8822 108.725 55.8822C113.046 55.8822 116.568 52.5609 116.568 48.0532C116.568 43.5158 113.046 40.2241 108.725 40.2241ZM125.836 52.7982C123.468 52.7982 121.425 50.8409 121.425 48.0532C121.425 45.2358 123.468 43.3081 125.836 43.3081C128.204 43.3081 130.246 45.2358 130.246 48.0532C130.246 50.8409 128.204 52.7982 125.836 52.7982ZM125.836 40.2241C121.514 40.2241 117.992 43.5158 117.992 48.0532C117.992 52.5609 121.514 55.8822 125.836 55.8822C130.157 55.8822 133.68 52.5609 133.68 48.0532C133.68 43.5158 130.157 40.2241 125.836 40.2241Z" fill="#333333"/>
</svg>
