<svg width="442" height="194" viewBox="0 0 442 194" fill="none" xmlns="http://www.w3.org/2000/svg">
<path d="M11.1001 153V41.9995H36.9474L98.1564 115.894H85.9463V41.9995H116.709V153H90.862L29.6531 79.1055H41.8632V153H11.1001Z" fill="black"/>
<path fill-rule="evenodd" clip-rule="evenodd" d="M157.08 108.442V84.9651L154.86 84.9731V108.442H157.08Z" fill="black"/>
<path d="M154.86 108.442V84.9731L157.08 84.9651V66.2616H213.056V42H126V153.001H215.118V128.739H157.08V108.442H154.86Z" fill="black"/>
<path d="M262.602 108.442V84.5844L157.08 84.9651V108.442H262.602Z" fill="#107980"/>
<path d="M298.189 42L283.918 61.1821L301.401 85.4795L332.124 42H298.189Z" fill="black"/>
<path d="M265.523 85.6074L265.365 107.966L257.469 96.794L217 153.001H252.837L293.729 96.3494L254.106 42H218.744L257.469 96.794L265.523 85.6074Z" fill="#107980"/>
<path d="M265.365 107.966L265.523 85.6074L257.469 96.794L265.365 107.966Z" fill="#107980"/>
<path d="M300.762 107.859L334.661 153.001H298.506L284.138 130.877L292.45 119.368L300.762 107.859Z" fill="black"/>
<path d="M374.891 153V66.8954H340.798V41.9995H440.223V66.8954H406.288V153H374.891Z" fill="black"/>
</svg>
