<svg width="20" height="20" viewBox="0 0 20 20" fill="none" xmlns="http://www.w3.org/2000/svg">
<path d="M13.4221 13.3711L13.871 12.9009L12.8284 11.7966L12.3815 12.2668L13.4221 13.3711ZM15.3764 12.7037L17.2578 13.782L17.9617 12.4141L16.0813 11.3368L15.3764 12.7037ZM17.6191 15.9242L16.2211 17.3907L17.2617 18.494L18.6598 17.0285L17.6191 15.9242ZM15.3685 17.8619C13.9409 18.003 10.249 17.8775 6.24985 13.6866L5.20823 14.7898C9.57163 19.3637 13.7253 19.5879 15.5063 19.4125L15.3685 17.8619ZM6.24985 13.6866C2.43877 9.69079 1.8067 6.33122 1.72794 4.87302L0.253124 4.96124C0.351577 6.79618 1.13427 10.52 5.20823 14.7898L6.24985 13.6866ZM7.60357 7.27256L7.88613 6.97573L6.84647 5.87248L6.56392 6.16827L7.60357 7.27256ZM8.1106 3.20309L6.8701 1.45533L5.68769 2.38941L6.92819 4.13613L8.1106 3.20309ZM2.69474 1.07443L1.14904 2.6935L2.19067 3.79779L3.73538 2.17872L2.69474 1.07443ZM7.08374 6.72042C6.56195 6.16827 6.56195 6.16827 6.56195 6.17035H6.55998L6.55702 6.1745C6.51054 6.22451 6.46867 6.27907 6.43199 6.33744C6.37883 6.42047 6.32074 6.52945 6.27151 6.66749C6.15163 7.0238 6.12177 7.40687 6.18487 7.77904C6.3168 8.67679 6.90358 9.86307 8.40596 11.4385L9.44758 10.3343C8.0407 8.86049 7.70596 7.96378 7.64394 7.54033C7.6144 7.33898 7.64492 7.23935 7.65378 7.21652C7.65871 7.20199 7.66068 7.20095 7.65378 7.21029C7.6451 7.22468 7.63522 7.23823 7.62425 7.25076L7.6144 7.26114C7.61122 7.26437 7.60794 7.26749 7.60456 7.27048L7.08374 6.72042ZM8.40596 11.4385C9.90933 13.014 11.0405 13.6284 11.8931 13.7654C12.3293 13.836 12.6808 13.78 12.9476 13.6751C13.0968 13.6169 13.2363 13.5343 13.3611 13.4302C13.378 13.4153 13.3944 13.3997 13.4103 13.3835L13.4172 13.3773L13.4201 13.3742L13.4211 13.3721C13.4211 13.3721 13.4221 13.3711 12.9013 12.8189C12.3795 12.2668 12.3824 12.2657 12.3824 12.2657L12.3844 12.2637L12.3864 12.2616L12.3923 12.2564L12.4021 12.246C12.414 12.2348 12.4265 12.2244 12.4395 12.2149C12.4494 12.2076 12.4464 12.2107 12.4327 12.2169C12.408 12.2263 12.3116 12.2585 12.1176 12.2273C11.71 12.1609 10.8535 11.808 9.44758 10.3343L8.40596 11.4385ZM6.8701 1.45429C5.86589 0.0427939 3.8929 -0.181385 2.69474 1.07443L3.73538 2.17872C4.25915 1.62969 5.18854 1.68677 5.68769 2.38941L6.8701 1.45429ZM1.72892 4.87405C1.70923 4.51495 1.86577 4.13925 2.19067 3.79883L1.14806 2.69454C0.619367 3.24876 0.202914 4.03338 0.253124 4.96124L1.72892 4.87405ZM16.2211 17.3907C15.9513 17.6751 15.6599 17.8349 15.3695 17.8629L15.5063 19.4125C16.23 19.3409 16.8217 18.9568 17.2627 18.495L16.2211 17.3907ZM7.88613 6.97573C8.85588 5.95966 8.92776 4.35408 8.11159 3.20413L6.92917 4.13717C7.32594 4.69658 7.26687 5.43035 6.84549 5.87352L7.88613 6.97573ZM17.2588 13.7831C18.0631 14.2439 18.1882 15.3295 17.6201 15.9252L18.6617 17.0285C19.981 15.645 19.5744 13.3378 17.9627 12.4152L17.2588 13.7831ZM13.871 12.9019C14.2491 12.5055 14.8575 12.4079 15.3774 12.7047L16.0823 11.3379C15.0151 10.7255 13.6919 10.8947 12.8294 11.7977L13.871 12.9019Z" fill="#1A6F90"/>
</svg>
